<?xml version="1.0" encoding="UTF-8" standalone="no"?>
<!DOCTYPE svg PUBLIC "-//W3C//DTD SVG 1.1//EN" "http://www.w3.org/Graphics/SVG/1.1/DTD/svg11.dtd">
<svg width="100%" height="100%" viewBox="0 0 24 24" version="1.1" xmlns="http://www.w3.org/2000/svg" xmlns:xlink="http://www.w3.org/1999/xlink" xml:space="preserve" xmlns:serif="http://www.serif.com/" style="fill-rule:evenodd;clip-rule:evenodd;stroke-linejoin:round;stroke-miterlimit:2;">
    <g transform="matrix(0.0101446,0,0,0.0101446,-1.38966,0.465465)">
        <g transform="matrix(1.51745,0,0,1.51745,-526.373,4.3082)">
            <path d="M1110.3,1369.1L1143.2,1500.7L1301.2,1500.7L1331.9,1366.9L1110.3,1369.1Z"/>
        </g>
        <g transform="matrix(1.51745,0,0,1.51745,-526.373,4.3082)">
            <path d="M1192.7,1276L1198.7,1294.6L1202.5,1302.9L1240.6,1303.1L1245.1,1300.9L1250.6,1287.9C1274.1,1227.4 1335.8,969.2 1348.6,903.3C1383.4,724.5 1409.5,542.3 1396.8,359.7C1392,290.7 1379,213.6 1353.2,149.1C1333.5,99.6 1303.9,42.9 1251.8,20.9C1195.2,-3 1140.6,55 1116.2,102C986.7,351.5 1069.4,781.8 1129.9,1036.9L1150.3,1124.4C1163.7,1175.1 1178.9,1220.1 1192.7,1276Z"/>
        </g>
        <g transform="matrix(1.51745,0,0,1.51745,-526.373,4.3082)">
            <path d="M1176.5,1288.6L1154,1270.1C885.2,1017.7 516.6,169.1 1097.6,12.6C1121.3,6.2 1116.4,7.7 1139.3,6.6C682.8,203.3 990.8,970.2 1176.5,1288.6Z"/>
        </g>
        <g transform="matrix(1.51745,0,0,1.51745,-526.373,4.3082)">
            <path d="M1273.7,1288.6L1296.2,1270.1C1565,1017.7 1933.6,169.1 1352.6,12.6C1328.9,6.2 1333.8,7.7 1310.9,6.6C1767.4,203.3 1459.5,970.2 1273.7,1288.6Z"/>
        </g>
        <g transform="matrix(1.51745,0,0,1.51745,-526.373,4.3082)">
            <path d="M910.1,74C795.8,127.2 708,242.7 689.1,368L684.7,421.2L685.2,464L691.2,511.2L694.5,533.7C739.5,781.4 945.3,1106.1 1126.4,1278.2C876,944.1 498.1,415.6 910.1,74Z"/>
        </g>
        <g transform="matrix(1.51745,0,0,1.51745,-526.373,4.3082)">
            <path d="M1540.1,74C1654.4,127.2 1742.2,242.7 1761.1,368L1765.5,421.2L1764.9,464L1758.9,511.2L1755.6,533.7C1710.6,781.4 1504.8,1106.1 1323.7,1278.2C1574.2,944.1 1952.1,415.6 1540.1,74Z"/>
        </g>
    </g>
</svg>
