<svg xmlns="http://www.w3.org/2000/svg" width="306" height="40" viewBox="0 0 306 40"><g fill="none" fill-rule="evenodd"><path d="M96.398 32.002h2.814c1.418 0 2.427.731 2.427 2.028 0 .731-.356 1.362-.953 1.683v.023c.863.253 1.272 1.051 1.272 1.849 0 1.573-1.263 2.282-2.713 2.282h-2.847v-7.865zm2.814 3.213c.62 0 .975-.443.975-1.008s-.333-.975-.997-.975h-1.363v1.983h1.385zm.144 3.422c.731 0 1.141-.476 1.141-1.141 0-.654-.421-1.13-1.141-1.13h-1.529v2.271h1.529zm5.15-6.634v7.864h4.885v-1.23h-3.457v-2.115h2.648v-1.23h-2.648v-2.061h3.278v-1.228h-4.706m12.472 0v3.334h-3.6v-3.334h-1.429v7.864h1.429v-3.302h3.6v3.302h1.429v-7.864h-1.429m4.374 0h1.429v7.864h-1.429v-7.864zm4.473-.001h1.429l2.979 4.543c.3.453.654 1.217.654 1.217h.022s-.078-.753-.078-1.217v-4.543h1.419v7.865h-1.419l-2.98-4.53c-.297-.454-.652-1.219-.652-1.219h-.022s.077.753.077 1.219v4.53h-1.429v-7.865m9.485 0h2.681c2.425 0 4.01 1.44 4.01 3.922 0 2.481-1.585 3.943-4.01 3.943h-2.681v-7.865zm2.604 6.635c1.595 0 2.613-.941 2.613-2.713 0-1.75-1.04-2.692-2.613-2.692h-1.175v5.405h1.175zm8.871-6.634v1.228h2.58v6.636h1.43v-6.636h2.582v-1.228h-6.592m13.625 0v3.334h-3.601v-3.334h-1.428v7.864h1.428v-3.302h3.601v3.302h1.427v-7.864h-1.427m4.539 0v7.864h4.885v-1.23h-3.456v-2.115h2.647v-1.23h-2.647v-2.061h3.279v-1.228h-4.708m11.276-.001h2.813c1.418 0 2.427.731 2.427 2.028 0 .731-.355 1.362-.953 1.683v.023c.864.253 1.274 1.051 1.274 1.849 0 1.573-1.263 2.282-2.715 2.282h-2.846v-7.865zm2.813 3.213c.621 0 .975-.443.975-1.008s-.332-.975-.997-.975h-1.363v1.983h1.385zm.144 3.422c.731 0 1.141-.476 1.141-1.141 0-.654-.421-1.13-1.141-1.13h-1.529v2.271h1.529zm5.095-6.634v7.864h4.885v-1.23h-3.456v-2.115h2.647v-1.23h-2.647v-2.061h3.279v-1.228h-4.708m7.694 5.848s.853.831 1.961.831c.599 0 1.142-.31 1.142-.953 0-1.407-3.711-1.162-3.711-3.578 0-1.307 1.129-2.282 2.635-2.282 1.55 0 2.348.842 2.348.842l-.619 1.163s-.753-.687-1.739-.687c-.665 0-1.186.389-1.186.942 0 1.396 3.701 1.053 3.701 3.567 0 1.252-.955 2.303-2.593 2.303-1.751 0-2.713-1.073-2.713-1.073l.774-1.075m6.225-5.848v1.228h2.582v6.636h1.428v-6.636h2.582v-1.228h-6.592m11.497 5.848s.853.831 1.96.831c.599 0 1.142-.31 1.142-.953 0-1.407-3.711-1.162-3.711-3.578 0-1.307 1.13-2.282 2.636-2.282 1.551 0 2.349.842 2.349.842l-.621 1.163s-.753-.687-1.739-.687c-.664 0-1.185.389-1.185.942 0 1.396 3.7 1.053 3.7 3.567 0 1.252-.953 2.303-2.591 2.303-1.751 0-2.715-1.073-2.715-1.073l.775-1.075m6.002-5.848v1.228h2.582v6.636h1.43v-6.636h2.58v-1.228h-6.592m11.742 6.69c-1.44 0-2.591-1.197-2.591-2.814 0-1.551 1.151-2.703 2.591-2.703 1.441 0 2.593 1.152 2.593 2.703 0 1.617-1.152 2.814-2.593 2.814zm0-6.823c-2.314 0-4.065 1.762-4.065 4.009 0 2.315 1.751 4.121 4.065 4.121 2.315 0 4.065-1.806 4.065-4.121 0-2.247-1.75-4.009-4.065-4.009zm6.335.132h2.537c.852 0 1.24.066 1.583.223.787.353 1.286 1.106 1.286 2.148 0 .942-.499 1.817-1.33 2.148v.024s.111.109.266.386l1.618 2.936h-1.596l-1.561-2.936h-1.374v2.936h-1.429v-7.865zm2.714 3.688c.765 0 1.24-.453 1.24-1.239 0-.754-.321-1.219-1.439-1.219h-1.086v2.458h1.285zm5.715-3.687v7.864h4.885v-1.23h-3.456v-2.115h2.647v-1.23h-2.647v-2.061h3.279v-1.228h-4.708m7.277 0v7.864h1.428v-3.179h2.603v-1.23h-2.603v-2.227h3.091v-1.228h-4.519m6.977-.001h2.537c.852 0 1.24.066 1.585.223.785.353 1.284 1.106 1.284 2.148 0 .942-.499 1.817-1.33 2.148v.024s.111.109.266.386l1.618 2.936h-1.596l-1.561-2.936h-1.374v2.936h-1.429v-7.865zm2.714 3.688c.765 0 1.242-.453 1.242-1.239 0-.754-.322-1.219-1.441-1.219h-1.086v2.458h1.285zm9.052 3.003c-1.44 0-2.592-1.197-2.592-2.814 0-1.551 1.152-2.703 2.592-2.703 1.439 0 2.592 1.152 2.592 2.703 0 1.617-1.153 2.814-2.592 2.814zm0-6.823c-2.314 0-4.065 1.762-4.065 4.009 0 2.315 1.751 4.121 4.065 4.121 2.315 0 4.065-1.806 4.065-4.121 0-2.247-1.75-4.009-4.065-4.009zm6.446.132h1.429l2.979 4.543c.3.453.654 1.217.654 1.217h.022s-.078-.753-.078-1.217v-4.543h1.419v7.865h-1.419l-2.979-4.53c-.298-.454-.653-1.219-.653-1.219h-.022s.077.753.077 1.219v4.53h-1.429v-7.865m8.483.001v1.228h2.582v6.636h1.43v-6.636h2.58v-1.228h-6.592m8.529 5.848s.853.831 1.961.831c.599 0 1.142-.31 1.142-.953 0-1.407-3.712-1.162-3.712-3.578 0-1.307 1.13-2.282 2.637-2.282 1.55 0 2.347.842 2.347.842l-.62 1.163s-.752-.687-1.738-.687c-.665 0-1.186.389-1.186.942 0 1.396 3.7 1.053 3.7 3.567 0 1.252-.953 2.303-2.591 2.303-1.751 0-2.715-1.073-2.715-1.073l.775-1.075M17.917 3.046C16.751 1.252 14.451.179 11.765.179c-3.985 0-7.827 2.736-8.566 6.1-.816 3.947 2.03 5.725 4.542 7.295 1.839 1.15 3.427 2.142 3.078 3.756-.234 1.118-1.762 2.173-3.145 2.173-1.258 0-2.19-.391-2.938-1.237-.243-.243-.436-.543-.638-.86-.064-.1-.128-.2-.195-.301l-.054-.079L.052 19.19 0 19.22v.059c0 .101.192.596.195.605 1.082 2.507 3.313 3.777 6.633 3.777 4.223 0 8.129-2.803 8.893-6.383.808-3.771-1.989-5.569-4.457-7.156-1.887-1.213-3.517-2.261-3.162-3.939.225-.986 1.584-1.849 2.91-1.849.982 0 1.846.292 2.571.873.372.279.749.608 1.119.978l.065.064 3.362-2.642.039-.031v-.05c0-.089-.163-.395-.251-.48m9.631 16.422c-.888 0-1.659-.316-2.168-.89-.529-.596-.758-1.442-.646-2.381.182-1.352.484-2.844.647-3.646.047-.236.085-.42.103-.527.039-.144.097-.397.171-.727.188-.834.503-2.229.911-3.554.55-1.923 2.27-3.265 4.182-3.265.868 0 1.634.316 2.156.889.544.6.795 1.447.705 2.387-.091 1.09-.455 2.987-.751 4.223-.222 1.066-.652 3.034-1.032 4.221-.647 1.895-2.446 3.27-4.278 3.27zM36.982 2.38C35.73.991 33.868.226 31.741.226h-.1c-1.827 0-3.816.811-5.133 2.081-.075-.614-.414-1.324-.655-1.6-.04-.079-.181-.212-.375-.391a4.384 4.384 0 0 1-.115-.108l-.057-.057-4.07 2.473v.058c0 .034.015.076.076.238.039.099.11.284.112.327l.029.094c.414 1.057.665 1.694.21 3.882l-4.664 21.548-.034.156 5.161-1.132.065-.015 1.133-5.523c.736.882 2.043 1.463 3.329 1.463h.099c4.281 0 8.508-3.105 9.832-7.223.365-1.173.788-2.865 1.132-4.522.341-1.367.663-3.188.802-4.531.201-1.943-.344-3.742-1.536-5.064zM55.263.516c-.022-.001-.072-.012-.122-.022a1.402 1.402 0 0 0-.145-.026C54.32.212 53.552.179 52.957.179c-1.665 0-3.525.733-5.012 1.967-.107-.58-.469-1.21-.725-1.508-.054-.052-.181-.164-.293-.263-.087-.077-.165-.145-.186-.166l-.057-.057-4.101 2.442-.05.03v.058c0 .037.016.077.079.228.038.09.109.259.112.301l.013.051c.423 1.078.702 1.791.231 4.007L39.51 23.546l-.027.125h4.964l2.417-11.507a262.21 262.21 0 0 1 1.057-4.131c.26-1.193.829-2.126 1.687-2.771.707-.504 1.41-.749 2.149-.749.376 0 .697.072 1.01.228l.046.012c.028.001.11.057.167.114l.099.099L55.353.667l.073-.144-.163-.007m6.794 9.967c-.359-.001-.71-.008-1.045-.015l-1.335-.007c.048-.186.096-.371.142-.555.213-.835.414-1.624.673-2.329.591-1.864 2.579-3.324 4.525-3.324 1.103 0 1.905.299 2.384.889.433.534.573 1.297.394 2.147-.602 2.814-3.238 3.194-5.738 3.194zm9.65-8C70.493.975 68.425.179 65.725.179c-4.404 0-8.631 3.025-10.051 7.191-.422 1.171-1.039 3.724-1.277 4.967-.278 1.337-.465 2.674-.662 4.159-.239 1.865.266 3.616 1.422 4.928 1.311 1.49 3.322 2.311 5.662 2.311 3.012 0 6.006-1.297 7.814-3.385l.051-.059-1.803-2.752-.087.069c-.435.336-.826.58-1.174.797-1.217.813-2.399 1.16-3.95 1.16-.943-.018-1.722-.35-2.251-.96-.586-.675-.846-1.675-.715-2.749.038-.491.17-1.177.218-1.412l2.51.046c6.458 0 10.238-2.425 11.233-7.205.399-1.834.059-3.54-.958-4.802zm10.495 8a57.489 57.489 0 0 1-1.046-.015l-1.335-.007c.049-.186.096-.371.142-.555.214-.835.415-1.624.673-2.329.592-1.864 2.58-3.324 4.526-3.324 1.103 0 1.905.299 2.384.889.433.534.573 1.297.393 2.147-.602 2.814-3.237 3.194-5.737 3.194zm9.649-8C90.638.975 88.569.179 85.869.179c-4.403 0-8.63 3.025-10.05 7.191-.423 1.171-1.039 3.724-1.277 4.967-.278 1.337-.465 2.674-.663 4.159-.239 1.865.267 3.616 1.422 4.928 1.312 1.49 3.322 2.311 5.663 2.311 3.011 0 6.006-1.297 7.814-3.385l.051-.059-1.803-2.752-.088.069c-.434.336-.826.58-1.174.797-1.217.813-2.398 1.16-3.95 1.16-.943-.018-1.721-.35-2.251-.96-.585-.675-.845-1.675-.714-2.749.037-.491.17-1.177.217-1.412l2.511.046c6.458 0 10.238-2.425 11.232-7.205.4-1.834.06-3.54-.958-4.802z" fill="#478BBE"/><path fill="#7CB742" d="M111.613 3.089c-.012-.018-.023-.028-.021-.027v-.03l-.016-.025C110.408 1.158 108.601.18 106.354.18c-4.017 0-7.902 2.941-9.237 6.994-.43 1.292-.992 3.456-1.227 4.721-.41 1.741-.645 3.463-.803 4.768-.252 1.925.234 3.696 1.367 4.987 1.162 1.323 2.922 2.053 4.953 2.053 2.653 0 5.257-1.302 7.159-3.59.021-.042.053-.083.084-.126.039-.052.078-.104.103-.156l.038-.075-2.022-1.569-.064.064c-.526.527-.986.928-1.45 1.265-.992.767-2.08 1.155-3.235 1.155-1.121 0-2.107-.407-2.775-1.146-.654-.724-.954-1.715-.845-2.794.101-1.313.591-3.863.752-4.696.501-2.163.912-3.713 1.222-4.606.784-2.351 3.213-4.264 5.414-4.264.772 0 1.545.278 2.304.836.361.317.734.645 1.055 1.056l.061.078 2.477-1.785v-.053c0-.083-.042-.155-.072-.208m14.561 4.204c-.093 1.223-.523 3.455-.799 4.653-.228 1.183-.743 3.407-1.174 4.649-.786 2.313-3.206 4.125-5.509 4.125-1.103 0-2.096-.425-2.796-1.197-.701-.773-1.027-1.814-.917-2.933.086-1.071.448-3.016.688-4.303l.063-.346.081-.338c.302-1.26.757-3.162 1.141-4.315.789-2.273 3.26-4.123 5.509-4.123 1.095 0 2.087.428 2.791 1.208.705.78 1.033 1.816.922 2.92 0 0 .111-1.104 0 0zm1.774-5.1C126.766.895 125.035.18 123.074.18c-4.086 0-8.049 2.962-9.424 7.041-.432 1.244-.955 3.493-1.228 4.723-.289 1.36-.536 2.903-.757 4.719-.246 1.884.245 3.636 1.383 4.931 1.193 1.36 2.981 2.109 5.033 2.109 4.16 0 8.192-3.009 9.379-6.997a55.09 55.09 0 0 0 1.226-4.765c.287-1.243.661-3.449.801-4.723.184-1.948-.363-3.733-1.539-5.025zm30.36-.338c-.975-1.096-2.372-1.674-4.036-1.674h-.095c-2.018.044-4.665 1.198-5.934 3.325-.954-2.207-2.575-3.327-4.82-3.327l-.139.002c-1.765.044-3.416.921-5.041 2.679-.083-1.046-.647-2.029-.835-2.219a2.632 2.632 0 0 1-.274-.319l-.052-.079-2.803 1.579.273.653.039.112c.364 1.044.652 1.867.149 4.248l-3.55 16.702-.027.124h3.378l2.416-11.453a417.727 417.727 0 0 1 1.15-4.799c.619-2.664 2.297-4.191 4.603-4.191.834 0 1.494.263 1.958.782.642.717.893 1.901.723 3.428-.048.935-.462 2.794-.709 3.835l-.004.014a.191.191 0 0 0-.004.021h.001c-.041.208-.374 1.805-2.593 12.239l-.026.124h3.377l.017-.081c2.27-10.584 2.673-12.463 2.722-12.824l.016.002-.015-.004.001-.006.016.003.813-3.342c.618-2.664 2.296-4.191 4.602-4.191.835 0 1.492.263 1.957.782.642.717.893 1.901.723 3.428-.046.878-.41 2.57-.709 3.835l-.002.015-.006.02h.002c-.042.208-.375 1.806-2.594 12.239l-.027.124h3.377l2.513-11.793c.063-.308.141-.676.224-1.074.238-1.129.534-2.536.642-3.396.264-2.267-.233-4.236-1.397-5.543m30.364.001C187.696.76 186.301.181 184.636.181h-.096c-2.017.044-4.664 1.199-5.933 3.325-.956-2.207-2.576-3.327-4.82-3.327a6.63 6.63 0 0 0-.14.002c-1.767.044-3.417.921-5.039 2.679-.083-1.045-.648-2.029-.837-2.219-.001-.002-.185-.185-.275-.319l-.053-.079-2.801 1.579.272.653.04.114c.365 1.043.653 1.867.15 4.246l-3.551 16.702-.027.124h3.377l2.418-11.454c.426-1.85 1.142-4.768 1.15-4.798.62-2.664 2.296-4.191 4.602-4.191.835 0 1.494.263 1.959.782.641.717.891 1.9.723 3.428-.049.934-.465 2.8-.709 3.832l-.009.038-.004.015.003.003c-.055.271-.423 2.034-2.591 12.221l-.027.124h3.38l.017-.081c2.272-10.594 2.674-12.466 2.722-12.826l.016.003-.016-.005.001-.004.016.003.812-3.342c.618-2.664 2.295-4.191 4.601-4.191.835 0 1.493.263 1.958.782.643.717.893 1.901.724 3.428-.049.981-.514 3.008-.711 3.834l-.002.015-.006.021-.002.012.001.003c-.052.259-.414 1.995-2.59 12.224l-.026.124h3.375l2.514-11.793c.062-.306.14-.672.223-1.065.238-1.133.534-2.543.642-3.405.266-2.266-.23-4.234-1.395-5.542m14.51 1.31c1.38 0 2.441.413 3.069 1.195.557.693.736 1.646.506 2.684-.731 3.502-3.793 3.985-6.992 3.985-.307 0-.607-.004-.896-.008-.269-.003-.527-.007-.774-.007h-1.193c.276-1.237.642-2.867.914-3.728.798-2.349 3.106-4.121 5.366-4.121 0 0-2.26 0 0 0zm6.026-.866C208.082.914 206.21.18 203.794.18c-4.017 0-7.901 2.942-9.236 6.996-.411 1.232-1.079 3.83-1.323 5.144-.321 1.429-.51 2.857-.693 4.237l-.014.107c-.231 1.937.275 3.716 1.422 5.009 1.162 1.309 2.902 2.03 4.898 2.03 3.28 0 6.299-1.664 8.28-4.566l.061-.091-2.142-1.277-.056.064c-.382.428-.754.799-1.172 1.168-1.206 1.076-2.837 1.717-4.361 1.717-1.048 0-1.992-.403-2.656-1.137-.704-.779-1.028-1.84-.914-2.988.06-.563.155-1.118.255-1.706.054-.308.107-.619.156-.935h1.419c5.421 0 11.139-.821 12.442-6.912.384-1.827.046-3.51-.952-4.74zM226.263.426c-.56-.172-1.174-.246-2.058-.246-1.947.047-3.909.862-5.55 2.299-.125-.799-.689-1.653-.873-1.836-.001-.002-.186-.187-.277-.321l-.053-.077-2.729 1.487-.079.044.271.702c.034.121.07.237.105.352.298.97.555 1.809.086 4.026l-3.563 16.755-.027.124h3.388l2.426-11.492c.379-1.758 1.096-4.445 1.104-4.475.371-1.534 1.062-2.648 2.178-3.505.806-.615 1.733-.94 2.683-.94.575 0 .989.073 1.302.23l.377.188L226.658.67l.063-.113-.458-.131m15.088 2.663l-.016-.028-.004-.029-.016-.025C240.149 1.158 238.344.18 236.094.18c-4.015 0-7.9 2.941-9.237 6.994-.431 1.304-.993 3.468-1.227 4.721-.41 1.746-.644 3.466-.802 4.768-.252 1.925.234 3.696 1.367 4.987 1.162 1.323 2.921 2.053 4.954 2.053 2.653 0 5.257-1.302 7.157-3.59.02-.042.054-.083.085-.126.04-.052.077-.104.104-.156l.038-.075-2.022-1.569-.064.064c-.524.523-.983.925-1.452 1.265-.977.756-2.095 1.155-3.233 1.155-1.122 0-2.108-.407-2.776-1.146-.654-.724-.954-1.716-.845-2.794.101-1.308.592-3.861.753-4.696.501-2.163.912-3.712 1.221-4.606.783-2.351 3.212-4.264 5.414-4.264.772 0 1.544.278 2.289.823l.025.022c.358.314.727.64 1.044 1.047l.062.078 2.477-1.785v-.053a.41.41 0 0 0-.075-.208m10.916.077c1.381 0 2.441.413 3.069 1.195.557.693.736 1.646.506 2.684-.731 3.502-3.793 3.985-6.992 3.985-.306 0-.606-.004-.895-.008-.269-.003-.528-.007-.774-.007h-1.193c.276-1.237.641-2.867.913-3.728.798-2.349 3.106-4.121 5.366-4.121 0 0-2.26 0 0 0zm6.027-.866C257.168.914 255.296.18 252.879.18c-4.017 0-7.901 2.942-9.236 6.996-.411 1.232-1.079 3.83-1.322 5.144-.322 1.429-.51 2.857-.694 4.237l-.013.107c-.232 1.937.274 3.716 1.422 5.009 1.162 1.309 2.901 2.03 4.897 2.03 3.281 0 6.3-1.664 8.28-4.566l.062-.091-2.143-1.277-.056.064c-.381.428-.754.799-1.171 1.168-1.207 1.076-2.838 1.717-4.361 1.717-1.049 0-1.992-.403-2.657-1.137-.704-.779-1.028-1.84-.914-2.988.06-.563.155-1.118.256-1.706.053-.308.107-.619.155-.935h1.419c5.421 0 11.14-.821 12.443-6.912.384-1.827.045-3.51-.952-4.74zM263.23 6h-1.19l.991-4.703h-1.375l.215-1.008h3.945l-.214 1.008h-1.38L263.23 6zm5.29-1.441l2.152-4.27h1.652L271.117 6h-1.094l.567-2.703a35.4 35.4 0 0 1 .41-1.723h-.02L268.758 6h-1.098l-.238-4.426h-.016c-.028.23-.078.53-.148.903-.07.372-.314 1.546-.73 3.523h-1.075L266.66.29h1.578l.266 4.269h.016z"/><path fill="#478BBE" d="M299.826 35h-.757v-2.94h-.969v-.63h2.695v.63h-.969V35zm3.03 0l-.86-2.8h-.021c.03.57.046.95.046 1.14V35h-.676v-3.57h1.03l.845 2.73h.014l.896-2.73h1.03V35h-.705v-1.69c0-.08.001-.171.004-.275.002-.104.013-.381.033-.83h-.022L303.55 35h-.694z"/></g></svg>